<mxfile host="app.diagrams.net" modified="2023-04-24T04:32:44.463Z" agent="Mozilla/5.0 (Windows NT 10.0; Win64; x64) AppleWebKit/537.36 (KHTML, like Gecko) Chrome/112.0.0.0 Safari/537.36 Edg/112.0.1722.46" version="21.2.1" etag="MwSn7W8jLMrb4yJ2OpzK" type="github">
  <diagram name="第 1 页" id="ZL6_c4xqKzDJSsL5iHng">
    <mxGraphModel>
      <root>
        <mxCell id="0" />
        <mxCell id="1" parent="0" />
      </root>
    </mxGraphModel>
  </diagram>
</mxfile>
